<?xml version="1.0" encoding="utf-8"?>
<svg xmlns="http://www.w3.org/2000/svg" viewBox="0 0 50 50" width="100" height="100">
  <path d="M24.929688 2.0019531C24.819813 2.0024531 24.709016 2.0206406 24.603516 2.0566406L3.671875 9.3417969C3.227875 9.4957969 2.9498125 9.93925 3.0078125 10.40625L6.3164062 37.529297C6.3554062 37.850297 6.5450781 38.133109 6.8300781 38.287109L24.478516 47.878906C24.626516 47.959906 24.791078 48 24.955078 48C25.120078 48 25.286547 47.958953 25.435547 47.876953L43.173828 38.154297C43.455828 37.999297 43.647547 37.717438 43.685547 37.398438L46.992188 10.277344C47.050187 9.8083437 46.769312 9.3609844 46.320312 9.2089844L25.253906 2.0527344C25.148906 2.0177344 25.039562 2.0014531 24.929688 2.0019531 z M 25 7L38 35L33.5625 35L30.78125 29.007812L19.21875 29.007812L16.4375 35L12 35L25 7 z M 25 16.5L21.080078 25L28.919922 25L25 16.5 z" fill="#FFFFFF" />
</svg>