<svg xmlns="http://www.w3.org/2000/svg" viewBox="0 0 50 50">
  <path d="M25 5C15.601563 5 8 10.800781 8 18L8 20.527344C4.507813 22.046875 2 26.589844 2 32C2 38.398438 5.5 43.601563 10 44L10 18C10 11.898438 16.699219 7 25 7C33.300781 7 40 11.898438 40 18L40 44C44.5 43.601563 48 38.398438 48 32C48 26.589844 45.492188 22.046875 42 20.527344L42 18C42 10.800781 34.398438 5 25 5 Z M 12 20.199219L12 43.800781C12.699219 43.601563 13.398438 43.300781 14 42.902344L14 21.097656C13.398438 20.699219 12.699219 20.398438 12 20.199219 Z M 38 20.199219C37.300781 20.398438 36.601563 20.699219 36 21.097656L36 42.902344C36.601563 43.300781 37.300781 43.601563 38 43.800781 Z M 24.402344 21L22.300781 34.402344L19.402344 24L17.300781 32.902344L16 29.5L16 33.597656L17.699219 38L19.597656 30L22.699219 41.597656L24.597656 29L27.402344 41.097656L30.402344 30.097656L32.300781 38.402344L34 34.5L34 30.800781L32.699219 33.597656L30.597656 23.902344L27.597656 34.902344Z" fill="#FFFFFF" />
</svg>