<svg xmlns="http://www.w3.org/2000/svg" viewBox="0 0 64 64">
  <path d="M23.990234 3 A 1.0001 1.0001 0 0 0 23.298828 3.2929688L10.292969 16.298828 A 1.0001 1.0001 0 0 0 10.292969 17.712891L17.287109 24.707031C18.228184 25.648106 19.106889 26.765354 19.539062 28.169922C19.971238 29.57449 19.998105 31.299661 19.066406 33.628906 A 1.0001 1.0001 0 0 0 20.703125 34.707031L37.703125 17.697266 A 1.0001 1.0001 0 0 0 37.701172 16.283203L24.712891 3.2929688 A 1.0001 1.0001 0 0 0 23.990234 3 z M 24.005859 5.4140625L35.580078 16.990234L21.765625 30.8125C21.854545 29.626093 21.746315 28.539302 21.451172 27.580078C20.883347 25.734646 19.760097 24.351894 18.701172 23.292969L12.414062 17.005859L24.005859 5.4140625 z M 39.978516 19 A 1.0001 1.0001 0 0 0 39.285156 19.292969L33.353516 25.224609 A 1.0001 1.0001 0 0 0 33.351562 25.226562 A 1.0001 1.0001 0 0 0 33.210938 25.367188 A 1.0001 1.0001 0 0 0 33.208984 25.369141L26.355469 32.224609 A 1.0001 1.0001 0 0 0 26.351562 32.226562 A 1.0001 1.0001 0 0 0 26.210938 32.367188 A 1.0001 1.0001 0 0 0 26.208984 32.371094L19.357422 39.222656 A 1.0001 1.0001 0 0 0 19.351562 39.226562 A 1.0001 1.0001 0 0 0 19.210938 39.367188 A 1.0001 1.0001 0 0 0 19.207031 39.373047L12.277344 46.302734 A 1.0001 1.0001 0 0 0 12.277344 47.716797L25.267578 60.707031 A 1.0001 1.0001 0 0 0 26.681641 60.707031L32.537109 54.851562 A 1.0001 1.0001 0 0 0 32.865234 54.523438L39.537109 47.851562 A 1.0001 1.0001 0 0 0 39.865234 47.523438L46.537109 40.851562 A 1.0001 1.0001 0 0 0 46.865234 40.523438L53.691406 33.697266 A 1.0001 1.0001 0 0 0 53.691406 32.283203L46.830078 25.423828 A 1.0001 1.0001 0 0 0 46.828125 25.419922 A 1.0001 1.0001 0 0 0 46.59375 25.1875L40.699219 19.292969 A 1.0001 1.0001 0 0 0 39.978516 19 z M 39.992188 21.414062L43.578125 25L36.40625 25L39.992188 21.414062 z M 34.40625 27L45.578125 27L50.578125 32L29.40625 32L34.40625 27 z M 27.40625 34L50.558594 34L45.558594 39L22.408203 39L27.40625 34 z M 56.257812 35.322266C56.002063 35.322266 55.746281 35.419734 55.550781 35.615234C55.159781 36.006234 55.159781 36.638297 55.550781 37.029297L56.964844 38.443359C57.159844 38.638359 57.415875 38.736328 57.671875 38.736328C57.927875 38.736328 58.183906 38.639359 58.378906 38.443359C58.769906 38.052359 58.769906 37.420297 58.378906 37.029297L56.964844 35.615234C56.769344 35.419734 56.513562 35.322266 56.257812 35.322266 z M 52.470703 39.111328C52.214953 39.111328 51.959172 39.208797 51.763672 39.404297C51.372672 39.795297 51.372672 40.427359 51.763672 40.818359L53.177734 42.232422C53.372734 42.427422 53.628766 42.525391 53.884766 42.525391C54.140766 42.525391 54.396797 42.428422 54.591797 42.232422C54.982797 41.841422 54.982797 41.209359 54.591797 40.818359L53.177734 39.404297C52.982234 39.208797 52.726453 39.111328 52.470703 39.111328 z M 20.408203 41L43.558594 41L38.560547 46L15.408203 46L20.408203 41 z M 48.681641 42.898438C48.425891 42.898438 48.170109 42.995906 47.974609 43.191406C47.583609 43.582406 47.583609 44.214469 47.974609 44.605469L49.388672 46.019531C49.583672 46.214531 49.839703 46.3125 50.095703 46.3125C50.351703 46.3125 50.606734 46.214531 50.802734 46.019531C51.193734 45.628531 51.193734 44.996469 50.802734 44.605469L49.388672 43.191406C49.193172 42.995906 48.937391 42.898437 48.681641 42.898438 z M 44.892578 46.6875C44.636703 46.6875 44.380547 46.784969 44.185547 46.980469C43.794547 47.371469 43.794547 48.004531 44.185547 48.394531L45.601562 49.808594C45.796563 50.003594 46.052594 50.101562 46.308594 50.101562C46.564594 50.101563 46.820625 50.003594 47.015625 49.808594C47.406625 49.417594 47.406625 48.784531 47.015625 48.394531L45.599609 46.980469C45.404109 46.784969 45.148453 46.6875 44.892578 46.6875 z M 15.388672 48L36.560547 48L31.560547 53L20.388672 53L15.388672 48 z M 41.105469 50.474609C40.849719 50.474609 40.593937 50.572078 40.398438 50.767578C40.007438 51.158578 40.007438 51.790641 40.398438 52.181641L41.8125 53.595703C42.0075 53.790703 42.263531 53.888672 42.519531 53.888672C42.775531 53.888672 43.031562 53.790703 43.226562 53.595703C43.617562 53.204703 43.617562 52.572641 43.226562 52.181641L41.8125 50.767578C41.617 50.572078 41.361219 50.474609 41.105469 50.474609 z M 37.316406 54.263672C37.060531 54.263672 36.804375 54.361141 36.609375 54.556641C36.218375 54.947641 36.218375 55.580703 36.609375 55.970703L38.025391 57.384766C38.220391 57.579766 38.476422 57.677734 38.732422 57.677734C38.988422 57.677734 39.245453 57.579766 39.439453 57.384766C39.830453 56.993766 39.830453 56.360703 39.439453 55.970703L38.023438 54.556641C37.827937 54.361141 37.572281 54.263672 37.316406 54.263672 z M 22.388672 55L29.560547 55L25.974609 58.585938L22.388672 55 z" fill="#FFFFFF" />
</svg>