<svg xmlns="http://www.w3.org/2000/svg" viewBox="0 0 48 48">
  <path d="M13.5 6C9.3754991 6 6 9.3754991 6 13.5L6 34.5C6 38.624501 9.3754991 42 13.5 42L34.5 42C38.624501 42 42 38.624501 42 34.5L42 13.5C42 9.3754991 38.624501 6 34.5 6L13.5 6 z M 21 15C21.66 15 22.249453 15.430312 22.439453 16.070312L26.939453 31.070312C27.169453 31.860312 26.719687 32.699453 25.929688 32.939453C25.789687 32.979453 25.64 33 25.5 33C24.85 33 24.260547 32.579688 24.060547 31.929688L23.480469 30L18.519531 30L17.939453 31.929688C17.699453 32.719687 16.870313 33.169453 16.070312 32.939453C15.280313 32.699453 14.830547 31.860313 15.060547 31.070312L19.560547 16.070312C19.750547 15.430313 20.34 15 21 15 z M 30.5 16.5C31.6 16.5 32.5 17.4 32.5 18.5C32.5 19.6 31.6 20.5 30.5 20.5C29.4 20.5 28.5 19.6 28.5 18.5C28.5 17.4 29.4 16.5 30.5 16.5 z M 21 21.720703L19.419922 27L22.580078 27L21 21.720703 z M 30.5 22C31.33 22 32 22.67 32 23.5L32 31.5C32 32.33 31.33 33 30.5 33C29.67 33 29 32.33 29 31.5L29 23.5C29 22.67 29.67 22 30.5 22 z" fill="#FFFFFF" />
</svg>