<svg xmlns="http://www.w3.org/2000/svg" viewBox="0 0 48 48">
  <path d="M13.5 6C9.3754991 6 6 9.3754991 6 13.5L6 34.5C6 38.624501 9.3754991 42 13.5 42L34.5 42C38.624501 42 42 38.624501 42 34.5L42 13.5C42 9.3754991 38.624501 6 34.5 6L13.5 6 z M 18.5 15C19.33 15 20 15.67 20 16.5L20 31.5C20 32.33 19.33 33 18.5 33C17.67 33 17 32.33 17 31.5L17 16.5C17 15.67 17.67 15 18.5 15 z M 30.5 15C31.33 15 32 15.67 32 16.5L32 31.5C32 32.33 31.33 33 30.5 33L28 33C24.69 33 22 30.31 22 27C22 23.69 24.69 21 28 21L29 21L29 16.5C29 15.67 29.67 15 30.5 15 z M 28 24C26.35 24 25 25.35 25 27C25 28.65 26.35 30 28 30L29 30L29 24L28 24 z" fill="#FFFFFF" />
</svg>