<svg xmlns="http://www.w3.org/2000/svg" viewBox="0 0 48 48">
  <path d="M13.5 6C9.3754991 6 6 9.3754991 6 13.5L6 34.5C6 38.624501 9.3754991 42 13.5 42L34.5 42C38.624501 42 42 38.624501 42 34.5L42 13.5C42 9.3754991 38.624501 6 34.5 6L13.5 6 z M 16.5 15L19 15C22.03 15 24.5 17.47 24.5 20.5C24.5 23.53 22.03 26 19 26L18 26L18 31.5C18 32.33 17.33 33 16.5 33C15.67 33 15 32.33 15 31.5L15 16.5C15 15.67 15.67 15 16.5 15 z M 18 18L18 23L19 23C20.38 23 21.5 21.88 21.5 20.5C21.5 19.12 20.38 18 19 18L18 18 z M 29.050781 21L30.400391 21C31.840391 21 33.159922 21.91 33.669922 23.25C33.969922 24.03 33.580781 24.889453 32.800781 25.189453C32.030781 25.489453 31.159141 25.090313 30.869141 24.320312C30.809141 24.160312 30.640391 24 30.400391 24L29.050781 24C28.640781 24 28.300781 24.34 28.300781 24.75C28.300781 25.16 28.640781 25.5 29.050781 25.5L30.25 25.5C32.32 25.5 34 27.18 34 29.25C34 31.32 32.32 33 30.25 33L28.099609 33C27.249609 33 26.429063 32.690859 25.789062 32.130859C25.659063 32.010859 25.539687 31.889766 25.429688 31.759766C24.889688 31.119766 24.979375 30.180625 25.609375 29.640625C26.249375 29.110625 27.190469 29.200078 27.730469 29.830078C27.830469 29.930078 27.939609 30 28.099609 30L30.25 30C30.66 30 31 29.66 31 29.25C31 28.84 30.66 28.5 30.25 28.5L29.050781 28.5C26.980781 28.5 25.300781 26.82 25.300781 24.75C25.300781 22.68 26.980781 21 29.050781 21 z" fill="#FFFFFF" />
</svg>