<svg xmlns="http://www.w3.org/2000/svg" viewBox="0 0 64 64">
  <path d="M12.46875 3.984375C12.046875 4 11.628906 4.121094 11.25 4.347656C10.492188 4.804688 10.039063 5.605469 10.039063 6.488281L10.039063 57.511719C10.039063 58.394531 10.492188 59.195313 11.25 59.652344C11.648438 59.890625 12.09375 60.015625 12.539063 60.015625C12.9375 60.015625 13.339844 59.914063 13.707031 59.71875L60.246094 35.136719C61.410156 34.519531 62.136719 33.316406 62.136719 32C62.136719 30.683594 61.410156 29.480469 60.246094 28.863281L13.707031 4.277344C13.316406 4.070313 12.894531 3.972656 12.46875 3.984375 Z M 12.542969 5.988281C12.613281 5.988281 12.6875 6.003906 12.773438 6.046875L48.078125 24.699219L44.699219 26.449219L35.738281 22.179688C34.941406 21.800781 34 21.851563 33.25 22.328125C32.488281 22.808594 32.039063 23.621094 32.039063 24.519531L32.039063 26.480469L23.8125 22.289063C23 21.867188 22.050781 21.910156 21.28125 22.390625C20.5 22.859375 20.039063 23.691406 20.039063 24.589844L20.039063 39.210938L12.039063 43.355469L12.039063 6.488281C12.039063 6.234375 12.207031 6.105469 12.28125 6.0625C12.328125 6.03125 12.421875 5.988281 12.542969 5.988281 Z M 5 6C4.445313 6 4 6.449219 4 7C4 7.550781 4.445313 8 5 8L7 8C7.554688 8 8 7.550781 8 7C8 6.449219 7.554688 6 7 6 Z M 5 11C4.445313 11 4 11.449219 4 12C4 12.550781 4.445313 13 5 13L7 13C7.554688 13 8 12.550781 8 12C8 11.449219 7.554688 11 7 11 Z M 21.039063 14C20.484375 14 20.039063 14.449219 20.039063 15L20.039063 19C20.039063 19.550781 20.484375 20 21.039063 20C21.59375 20 22.039063 19.550781 22.039063 19L22.039063 15C22.039063 14.449219 21.59375 14 21.039063 14 Z M 5 16C4.445313 16 4 16.449219 4 17C4 17.550781 4.445313 18 5 18L7 18C7.554688 18 8 17.550781 8 17C8 16.449219 7.554688 16 7 16 Z M 5 21C4.445313 21 4 21.449219 4 22C4 22.550781 4.445313 23 5 23L7 23C7.554688 23 8 22.550781 8 22C8 21.449219 7.554688 21 7 21 Z M 34.628906 23.929688C34.710938 23.929688 34.789063 23.941406 34.878906 23.988281L42.46875 27.597656L44.738281 28.679688L49.46875 30.929688C49.902344 31.128906 50.152344 31.53125 50.152344 32C50.152344 32.46875 49.902344 32.871094 49.46875 33.070313L47.152344 34.171875L44.878906 35.25L34.878906 40.011719C34.621094 40.140625 34.398438 40.03125 34.320313 39.980469C34.230469 39.929688 34.039063 39.78125 34.039063 39.480469L34.039063 24.519531C34.039063 24.21875 34.230469 24.070313 34.320313 24.019531C34.371094 23.980469 34.480469 23.929688 34.628906 23.929688 Z M 22.542969 24.007813C22.644531 23.992188 22.765625 24 22.902344 24.070313L32.039063 28.71875L32.039063 33L22.039063 38.179688L22.039063 24.589844C22.039063 24.300781 22.242188 24.140625 22.320313 24.089844C22.367188 24.066406 22.441406 24.023438 22.542969 24.007813 Z M 50.234375 25.839844L59.3125 30.636719C59.828125 30.90625 60.136719 31.417969 60.136719 32C60.136719 32.585938 59.828125 33.09375 59.3125 33.367188L52.550781 36.9375C52.527344 36.925781 52.511719 36.902344 52.488281 36.890625L49.398438 35.3125L50.328125 34.871094C51.449219 34.339844 52.148438 33.242188 52.148438 32C52.148438 30.761719 51.449219 29.660156 50.328125 29.128906L46.96875 27.53125 Z M 5 26C4.445313 26 4 26.449219 4 27C4 27.550781 4.445313 28 5 28L7 28C7.554688 28 8 27.550781 8 27C8 26.449219 7.554688 26 7 26 Z M 5 31C4.445313 31 4 31.449219 4 32C4 32.550781 4.445313 33 5 33L7 33C7.554688 33 8 32.550781 8 32C8 31.449219 7.554688 31 7 31 Z M 32.039063 35.261719L32.039063 39.480469C32.039063 40.378906 32.488281 41.191406 33.25 41.671875C33.671875 41.941406 34.152344 42.070313 34.628906 42.070313C35.011719 42.070313 35.390625 41.992188 35.738281 41.820313L47.121094 36.402344L50.40625 38.070313L22.039063 53.058594L22.039063 40.429688 Z M 5 36C4.445313 36 4 36.449219 4 37C4 37.550781 4.445313 38 5 38L7 38C7.554688 38 8 37.550781 8 37C8 36.449219 7.554688 36 7 36 Z M 5 41C4.445313 41 4 41.449219 4 42C4 42.550781 4.445313 43 5 43L7 43C7.554688 43 8 42.550781 8 42C8 41.449219 7.554688 41 7 41 Z M 20.039063 41.46875L20.039063 54C20.039063 54.035156 20.054688 54.066406 20.0625 54.105469L12.773438 57.953125C12.542969 58.070313 12.351563 57.984375 12.28125 57.9375C12.207031 57.894531 12.039063 57.765625 12.039063 57.511719L12.039063 45.609375 Z M 5 46C4.445313 46 4 46.449219 4 47C4 47.550781 4.445313 48 5 48L7 48C7.554688 48 8 47.550781 8 47C8 46.449219 7.554688 46 7 46 Z M 5 51C4.445313 51 4 51.449219 4 52C4 52.550781 4.445313 53 5 53L7 53C7.554688 53 8 52.550781 8 52C8 51.449219 7.554688 51 7 51 Z M 5 56C4.445313 56 4 56.449219 4 57C4 57.550781 4.445313 58 5 58L7 58C7.554688 58 8 57.550781 8 57C8 56.449219 7.554688 56 7 56Z" fill="#FFFFFF" />
</svg>